<svg xmlns="http://www.w3.org/2000/svg" width="14" height="12" viewBox="0 0 14 12" fill="none">
    <path d="M0.417991 12H13.2839C13.515 12 13.7019 11.8125 13.7019 11.5807V10.0891C13.7019 9.85721 13.515 9.66974 13.2839 9.66974H0.417991C0.186866 9.66974 0 9.85721 0 10.0891V11.5807C0 11.8109 0.186866 12 0.417991 12Z" fill="#333333"/>
    <path d="M0.417991 7.16511H7.84511C8.07624 7.16511 8.2631 6.97764 8.2631 6.74576V5.25419C8.2631 5.02231 8.07624 4.83484 7.84511 4.83484H0.417991C0.186866 4.83484 0 5.02231 0 5.25419V6.74576C0 6.97764 0.186866 7.16511 0.417991 7.16511Z" fill="#333333"/>
    <path d="M0.417991 2.33027H10.5825C10.8137 2.33027 11.0005 2.1428 11.0005 1.91092V0.41935C11.0005 0.187474 10.8137 0 10.5825 0H0.417991C0.186866 0 0 0.187474 0 0.41935V1.91092C0 2.1428 0.186866 2.33027 0.417991 2.33027Z" fill="#333333"/>
</svg>