<svg xmlns="http://www.w3.org/2000/svg" xmlns:xlink="http://www.w3.org/1999/xlink" contentStyleType="text/css" height="191px" preserveAspectRatio="none" style="width:638px;height:191px;background:#FFFFFF;" version="1.1" viewBox="0 0 638 191" width="638px" zoomAndPan="magnify"><defs/><g><!--entity User--><g id="elem_User"><rect fill="#F1F1F1" height="36.2969" rx="2.5" ry="2.5" style="stroke:#181818;stroke-width:0.5;" width="60" x="7" y="78"/><text fill="#000000" font-family="sans-serif" font-size="14" lengthAdjust="spacing" textLength="40" x="17" y="100.9951">Users</text></g><!--entity FE--><g id="elem_FE"><rect fill="#F1F1F1" height="36.2969" rx="2.5" ry="2.5" style="stroke:#181818;stroke-width:0.5;" width="206" x="127" y="78"/><text fill="#000000" font-family="sans-serif" font-size="14" lengthAdjust="spacing" textLength="186" x="137" y="100.9951">Frontend (Mnestix Catalog)</text></g><!--entity AAS--><g id="elem_AAS"><rect fill="#F1F1F1" height="36.2969" rx="2.5" ry="2.5" style="stroke:#181818;stroke-width:0.5;" width="187" x="419" y="7"/><text fill="#000000" font-family="sans-serif" font-size="14" lengthAdjust="spacing" textLength="167" x="429" y="29.9951">AAS Servers (REST APIs)</text></g><!--entity Nameplate--><g id="elem_Nameplate"><rect fill="#F1F1F1" height="36.2969" rx="2.5" ry="2.5" style="stroke:#181818;stroke-width:0.5;" width="168" x="428.5" y="78"/><text fill="#000000" font-family="sans-serif" font-size="14" lengthAdjust="spacing" textLength="148" x="438.5" y="100.9951">Nameplate Generator</text></g><!--entity OptBackend--><g id="elem_OptBackend"><rect fill="#F1F1F1" height="36.2969" rx="2.5" ry="2.5" style="stroke:#181818;stroke-width:0.5;" width="239" x="393" y="149"/><text fill="#000000" font-family="sans-serif" font-size="14" lengthAdjust="spacing" textLength="219" x="403" y="171.9951">Optional Backend / API Gateway</text></g><!--link User to FE--><g id="link_User_FE"><path d="M67.43,96.15 C83.64,96.15 98.85,96.15 120.54,96.15 " fill="none" id="User-to-FE" style="stroke:#181818;stroke-width:1.0;"/><polygon fill="#181818" points="126.54,96.15,117.54,92.15,121.54,96.15,117.54,100.15,126.54,96.15" style="stroke:#181818;stroke-width:1.0;"/></g><!--link FE to AAS--><g id="link_FE_AAS"><path d="M304.33,77.59 C345.56,67.15 391.0535,55.6425 432.2935,45.2025 " fill="none" id="FE-to-AAS" style="stroke:#181818;stroke-width:1.0;"/><polygon fill="#181818" points="438.11,43.73,428.4036,42.061,433.2629,44.9571,430.3669,49.8164,438.11,43.73" style="stroke:#181818;stroke-width:1.0;"/></g><!--link FE to Nameplate--><g id="link_FE_Nameplate"><path d="M333.46,96.15 C364.6,96.15 392.43,96.15 422.16,96.15 " fill="none" id="FE-to-Nameplate" style="stroke:#181818;stroke-width:1.0;"/><polygon fill="#181818" points="428.16,96.15,419.16,92.15,423.16,96.15,419.16,100.15,428.16,96.15" style="stroke:#181818;stroke-width:1.0;"/></g><!--link FE to OptBackend--><g id="link_FE_OptBackend"><path d="M304.33,114.71 C345.56,125.15 391.0535,136.6675 432.2935,147.1075 " fill="none" id="FE-to-OptBackend" style="stroke:#181818;stroke-width:1.0;"/><polygon fill="#181818" points="438.11,148.58,430.3669,142.4936,433.2629,147.3529,428.4036,150.249,438.11,148.58" style="stroke:#181818;stroke-width:1.0;"/></g><!--SRC=[JOzB3i8m34JtEONLLLbKt02feBPYmKSK3c2rfaI4f4eiFhSd2HNDRZJpR8yLNHdOW9N3ZQ6NbZgMHWiH1Ef14MGNHzPbW0w2IfFQ6isaUyXtcXpBDsoGKPbX4V6wIk6oRA4b-_JB83zLxHdAuzRzI9-bw1uVD2faWeOqMMHZ8_RtK_WmXiQeO8tTFPHPXiNGUEo5dpZdaIaK8lm0HR4AxUeggd1zalE5oPX7lm00]--></g></svg>